<?xml version="1.0" standalone="no"?>
<!DOCTYPE svg PUBLIC "-//W3C//DTD SVG 20010904//EN"
 "http://www.w3.org/TR/2001/REC-SVG-20010904/DTD/svg10.dtd">
<svg version="1.0" xmlns="http://www.w3.org/2000/svg"
 width="512.000000pt" height="512.000000pt" viewBox="0 0 512.000000 512.000000"
 preserveAspectRatio="xMidYMid meet">
<metadata>
Created by potrace 1.14, written by Peter Selinger 2001-2017
</metadata>
<g transform="translate(0.000000,512.000000) scale(0.100000,-0.100000)"
fill="#000000" stroke="none">
<path d="M2370 5049 c-939 -64 -1765 -648 -2158 -1525 -229 -511 -274 -1167
-117 -1723 89 -318 255 -638 473 -910 157 -197 384 -404 586 -535 184 -120
515 -274 624 -292 61 -10 109 16 133 72 20 44 20 57 14 288 l-8 243 -46 -10
c-71 -15 -324 -11 -421 7 -112 20 -212 70 -284 142 -53 53 -66 74 -135 229
-58 127 -142 234 -231 295 -63 43 -120 105 -120 131 0 27 53 42 126 36 140
-13 285 -116 390 -275 74 -112 143 -179 230 -222 62 -31 79 -35 169 -38 104
-4 207 12 292 44 33 13 45 23 49 43 25 129 55 196 120 278 l34 42 -57 6 c-89
10 -284 52 -352 75 -219 74 -416 204 -521 345 -99 134 -173 319 -211 535 -21
114 -18 456 4 544 37 146 103 280 192 389 l44 54 -19 61 c-52 168 -45 342 22
554 20 62 24 67 52 70 47 5 139 -10 204 -31 105 -36 299 -127 384 -181 l83
-53 80 17 c414 89 718 89 1130 0 l80 -17 81 51 c220 137 480 233 587 215 32
-5 34 -8 59 -91 43 -139 51 -200 46 -339 -4 -91 -11 -146 -26 -191 l-20 -63
63 -84 c150 -199 203 -387 192 -689 -8 -243 -46 -412 -132 -591 -58 -120 -119
-200 -211 -279 -191 -163 -431 -258 -762 -301 l-53 -7 34 -41 c54 -67 86 -128
109 -213 20 -74 22 -108 27 -531 l6 -453 33 -32 c29 -29 38 -33 85 -32 90 2
368 122 579 249 528 321 957 888 1123 1483 116 418 123 905 19 1323 -210 845
-854 1537 -1684 1810 -203 66 -397 103 -630 119 -160 11 -192 11 -360 -1z"/>
</g>
</svg>
